<svg id="Capa_1" data-name="Capa 1" xmlns="http://www.w3.org/2000/svg" viewBox="0 0 330.26 337.89"><title>wanderpi-icon</title><path d="M292.66,135.08c-.87.47-1.6.51-3.16.17a7.2,7.2,0,0,0-3.81.08c-1,.26-2.95.64-4.38.85a10.33,10.33,0,0,0-3.76,1.24,5,5,0,0,1-2.86.9c-2.47,0-4.63.72-5.76,1.92a3.22,3.22,0,0,1-2.47,1.06,6.9,6.9,0,0,0-5.07,2.18,6.54,6.54,0,0,0-.3,5.16,1.73,1.73,0,0,1-.22,1.83c-.82,1.06-.78,3.79.09,5.41a9.17,9.17,0,0,1,.78,3.33A6.65,6.65,0,0,0,263,163a7.09,7.09,0,0,1,1.17,3.16c0,1.53,1.34,4,2.33,4.43.35.13.78,1,.91,2,.26,1.37.87,2.26,2.56,3.93a19.08,19.08,0,0,1,3.07,3.88,6.52,6.52,0,0,0,3.16,2.85,9.3,9.3,0,0,1,3.25,2.56,9.34,9.34,0,0,0,3.25,2.52l2.25,1.06-3,2.05c-8.74,5.84-13.2,13.69-14.11,24.77L267.5,220,264,223.38c-4.89,4.69-7.28,8.31-9.31,14.28C253.3,241.54,253,249.22,254,253a34.07,34.07,0,0,0,5.19,10.83,20,20,0,0,1,3,6.65c.65,2.22,1.48,4.74,1.82,5.55a59,59,0,0,1,1.91,6.22A31.92,31.92,0,0,0,271.09,294c3,4.34,9.19,9.46,13.43,11.08a31.47,31.47,0,0,1,5,3,79.17,79.17,0,0,0,13.21,7.42,20.5,20.5,0,0,1,5,3.2,34.46,34.46,0,0,0,14.46,7.93c2.12.51,4.25.64,9.1.51,5.5-.13,6.75-.3,9.48-1.28a41.5,41.5,0,0,0,11.74-7,21.37,21.37,0,0,1,5.71-3.42,60.62,60.62,0,0,0,12.56-7.24,53.83,53.83,0,0,1,6.37-3.8,33.21,33.21,0,0,0,17.36-22.08c.48-1.92,1.35-4.87,1.95-6.49s1.47-4.39,1.95-6.14a19.28,19.28,0,0,1,2.64-5.62c4.07-5.72,5.63-10.41,5.63-17.06,0-9.12-4.42-18.42-11.17-23.54a14.21,14.21,0,0,1-3-2.89,30.57,30.57,0,0,1-1-5.59c-.61-5.59-1.34-8.1-3.6-12.41a31.83,31.83,0,0,0-10.48-10.91l-2.9-1.88,2.3-1.11a9.32,9.32,0,0,0,3.25-2.51,9.16,9.16,0,0,1,3.24-2.56,5.92,5.92,0,0,0,3.16-2.86,21.61,21.61,0,0,1,3.12-3.92c1.78-1.71,2.34-2.6,2.56-4a3.35,3.35,0,0,1,.86-2c1-.38,2.34-2.94,2.34-4.56a4.92,4.92,0,0,1,1.21-3.12,6,6,0,0,0,1.26-3.7,13,13,0,0,1,1-4.23c.78-1.74.86-2.26.43-3.49a4.29,4.29,0,0,0-.87-1.71c-.21-.13-.21-.68,0-1.32a6.55,6.55,0,0,0-.26-5.24,6.86,6.86,0,0,0-5.06-2.18,2.9,2.9,0,0,1-2.08-.72c-.95-1.11-3.9-2.26-5.93-2.26a5.18,5.18,0,0,1-3-.86,8.25,8.25,0,0,0-3.33-1.1,10.6,10.6,0,0,1-3-.86c-.95-.68-4.42-.76-5.93-.21a1.84,1.84,0,0,1-1.87-.21c-1.08-.81-3.46-.73-5.8.21a5,5,0,0,1-3.55.38,4.61,4.61,0,0,0-3.64.47,11.44,11.44,0,0,1-4,.9,6.68,6.68,0,0,0-5.29,2.3,3.27,3.27,0,0,1-2.42,1.11c-3.21,0-9.75,7.33-12,13.47a9.75,9.75,0,0,1-1.25,2.73,4.7,4.7,0,0,1-.78-1.83c-1.91-6.31-8.79-14.37-12.34-14.37a3.15,3.15,0,0,1-2.39-1,7.91,7.91,0,0,0-5.58-2.39,11,11,0,0,1-3.77-.9,4.61,4.61,0,0,0-3.64-.47,5,5,0,0,1-3.55-.38C295.56,134.35,294.18,134.31,292.66,135.08Zm8.23,7.54a5.87,5.87,0,0,0,1.82,1.24c.52,0,1-2,.65-2.52-.57-.93.26-.42,3,1.84a10.44,10.44,0,0,0,3,2.09,3.4,3.4,0,0,0,.26-1.5c0-.64.17-1.19.39-1.19a18.58,18.58,0,0,1,3.24,3.07l2.82,3.07.48-1.19.47-1.24,1.08,1a35.18,35.18,0,0,1,5.85,8.62c2.82,6,2.64,10.74-.52,14.15a10.12,10.12,0,0,1-2.94,2.3c-1.13.47-1.43.35-5.16-2.43A109.75,109.75,0,0,0,297,159.25c-4.68-2.17-13.25-5.58-14.07-5.58-.18,0,2.68,1.66,6.36,3.66a145.43,145.43,0,0,1,21.66,14.16c5.24,4.31,5.58,4.86,4.41,7.46-2.47,5.46-9.35,9-18.71,9.55l-4.11.26.87-.94c.82-.94.82-1,.08-1.54a14.69,14.69,0,0,0-3.94-1,31.89,31.89,0,0,1-4.41-.89l-1.22-.47,1-.51c.56-.3,1-.73.91-.94s-1.52-.9-3.21-1.5a22.71,22.71,0,0,1-4.15-1.83l-1-.72H279a3,3,0,0,0,1.82-.39c.17-.21-1.17-1.15-2.86-2.09a22.13,22.13,0,0,1-3.94-2.55c-.78-.86-.78-.86.65-1.16,2.2-.47,2.25-.64.26-1.91-2.21-1.45-5.72-5-4.55-4.52a4.84,4.84,0,0,0,1.86,0c1-.26,1-.39-1.78-3.16a17.73,17.73,0,0,1-2.81-3.37c0-.25.52-.34,1.3-.21a4.4,4.4,0,0,0,2,0c.61-.21.35-.51-1.17-1.49-1.86-1.15-4.29-3.59-4.29-4.31,0-.17.74-.26,1.69-.13s1.78,0,2-.21-.52-1.92-1.47-3.67L265.94,146h4.29c2.38,0,4.33-.17,4.33-.34a2.66,2.66,0,0,0-.87-1.15c-.47-.43-.73-.94-.6-1.11.39-.6,4-.43,6.75.3a6.74,6.74,0,0,0,2.82.43c.17-.13-.13-.86-.7-1.54L281,141.3h1a19.8,19.8,0,0,1,3.9.81,10.55,10.55,0,0,0,3.16.56c.43-.47.17-1-.91-2-.65-.59-1-1.06-.7-1.06a23.17,23.17,0,0,1,6.93,2.51l1.35.9.26-.86a2.43,2.43,0,0,0-.44-2l-.69-1.06,2.29,1.15A25.26,25.26,0,0,1,300.89,142.62Zm63.49-2.38a2.34,2.34,0,0,0-.39,1.87c.26.77.39.77,3.37-.6a30.19,30.19,0,0,1,4.42-1.66l1.3-.34-1.21,1.11c-1.13,1.07-1.39,1.58-1,2a10.63,10.63,0,0,0,3.17-.56,19.94,19.94,0,0,1,3.85-.81h1l-.91.9a2,2,0,0,0-.7,1.36c.22.64,1.3.6,5.33-.13a11,11,0,0,1,3.85-.25c.74.25.74.34-.17,1.23a4.61,4.61,0,0,0-.91,1.28c0,.17,2,.3,4.55.3h4.55L393,148.64a29.75,29.75,0,0,0-1.77,3.7c-.3,1-.26,1,1.69.81,1.25-.17,2-.08,2,.22a14.39,14.39,0,0,1-2.6,3c-1.43,1.37-2.51,2.69-2.34,2.94s1,.35,1.91.26l1.64-.13-.69,1.2a15.22,15.22,0,0,1-2.77,2.94,8.05,8.05,0,0,0-2.08,2.09c0,.21.74.38,1.65.38h1.6l-1.95,1.83c-1.08,1-2.64,2.31-3.47,2.95L384.34,172l1.86.3a4.44,4.44,0,0,1,1.82.51c0,.34-1.39,1.32-4.89,3.37s-3.73,2.64-1,2.68c1.26.05,1.26.05.48.64A17.85,17.85,0,0,1,379.4,181c-1.34.47-3,1.11-3.72,1.45l-1.3.6,1.47.64,1.43.6-1.43.51a21.76,21.76,0,0,1-4.5.77c-4.2.34-4.59.59-3,2l1.26,1.2-4.12-.3c-8.36-.6-13.68-2.6-17.32-6.52-2.34-2.52-3.51-5.25-2.73-6.44.95-1.54,8-7.17,13.77-11,3.34-2.22,9.1-5.63,12.78-7.63s6.54-3.67,6.32-3.67-2.77,1-5.8,2.17c-10.48,4.18-20.66,9.64-27.5,14.71a21.59,21.59,0,0,1-3.55,2.31c-1,0-4.2-2.73-5.24-4.52-2.21-3.71-1.82-8.49,1.17-14.24,1.55-2.95,4.72-7.29,5.63-7.59.17-.09.47.34.65.93s.43,1.11.6,1.11a22.44,22.44,0,0,0,3-3c2.68-3,3.81-3.67,3.38-2.18a2.58,2.58,0,0,0,.21,1.5c.35.64.7.51,2.47-1.15a24.43,24.43,0,0,1,2.9-2.35c.83-.43.87-.34.7.81-.31,1.92.82,2,3.24.13a18.54,18.54,0,0,1,4.81-2.73A4.93,4.93,0,0,1,364.38,140.24Zm-28.54,49c6.32,1.62,13,6.48,14.07,10.32,1.91,6.35-4.94,11-17.32,11.89-11.52.77-22.95-4.69-22.95-10.95,0-3.67,7.23-9.34,14.37-11.22A29.09,29.09,0,0,1,335.84,189.27Zm-31.92,3.58a8.71,8.71,0,0,1,2.08.6c.52.51-1.3,3.32-4,6.31-6.41,7-17.19,15.77-22.86,18.55-4.16,2-4.55,1.83-4.55-2.35,0-13.39,10.39-23.37,24.47-23.45A37,37,0,0,1,303.92,192.85ZM365.54,194a23.2,23.2,0,0,1,16.59,15.22c1.3,3.71,1.95,9.85,1.17,10.36-2.34,1.41-12.91-5.75-23.56-15.94-5.2-5-7.79-8.23-7.58-9.43C352.42,192.81,360.48,192.68,365.54,194Zm-6.92,19.95a25.89,25.89,0,0,1,17.53,22.9,21.29,21.29,0,0,1-2,10.75,21.92,21.92,0,0,1-6.76,7c-9.91,5.71-24.33,0-30.22-12a23.49,23.49,0,0,1-2.73-13c.47-7.81,4.54-13.48,11.3-15.86A23.72,23.72,0,0,1,358.62,213.91Zm-43.27,1.45c7.32,3.37,11.31,10.41,10.57,18.68a26.69,26.69,0,0,1-18.23,22.64,15.86,15.86,0,0,1-7.45.94c-3.38-.17-4.46-.43-6.8-1.58C281,250,280.1,232.5,291.71,220.82a23.1,23.1,0,0,1,9.7-6.1c2.34-.81,3.51-.93,6.93-.81S312.84,214.21,315.35,215.36Zm73.88,11.81c5.94,4.31,9.14,10.88,9.18,18.59,0,5.42-2.12,11.47-5.28,15.1-2.47,2.81-4.37,2.22-6.76-2.22-2.77-5.2-4.54-13.6-4.59-21.83,0-6.35.48-8.87,2.13-10.49C385.38,224.87,386.24,225,389.23,227.17ZM274,226.88c1.43,1.45,2,3.71,2.25,8.52.52,12.88-4.11,27.85-8.61,27.85-2.43,0-6.2-5.59-7.54-11.18a23,23,0,0,1,8.53-24C271.35,226,272.74,225.72,274,226.88Zm62.54,27.71c9.52,2.6,16,10.4,16,19.32,0,12.15-10.39,21.1-23.6,20.33-6.32-.38-11-2.34-15.16-6.48a19.51,19.51,0,0,1,1.69-28.86A23.23,23.23,0,0,1,336.49,254.59Zm46.64,7.76c3.16,1.45,4.89,6.23,4.89,13.6,0,8.1-1.91,12.62-7.79,18.42q-8.39,8.31-17.8,7.55c-5.33-.43-7.5-2.35-8.06-7.08-.52-4.52,2-12.79,5.46-18.08a56,56,0,0,1,12-12c2.82-1.88,6.2-3.16,8.19-3.16A8.8,8.8,0,0,1,383.13,262.35Zm-99.82,3a27.39,27.39,0,0,1,5.58,2.6c3.47,2.22,9.23,8,11.13,11.13,3,4.94,4.55,11.34,3.94,16.07-.52,4.05-2.9,6-7.75,6.35-5.76.39-12.17-2.51-17.32-7.84a25.91,25.91,0,0,1-7.28-19.53c.13-3.79.31-4.56,1.35-6.35a16.32,16.32,0,0,1,1.3-2s.86-.29,1.81-.64C278.46,264.35,280.06,264.4,283.31,265.38Zm56.94,36.07c4.94,1,7.93,2.26,9.79,4.05,1.39,1.36,1.6,1.79,1.34,2.81-1,4.1-7.92,9.68-14.46,11.69a31.38,31.38,0,0,1-12.78.38c-5.19-1.24-12.34-5.58-14.72-9-1.86-2.64-1.82-3.24.35-5.24s6-3.62,11.13-4.69C324.92,300.6,336.1,300.6,340.25,301.45Z" transform="translate(-156.74 -52)"/><path d="M316.82,72.33c1.35,21.9,7.41,28,7.41,7.41l.34-12.46,7.07,13.47c7.75,14.15,8.42,13.48,10.11-12.8.67-10.44-.34-15.83-3-15.83s-3.37,4-2,12.46c2.36,14.49-2.69,13.14-9.09-2.36C320.52,45.38,315.81,49.76,316.82,72.33Z" transform="translate(-156.74 -52)"/><path d="M274,94.48c.34,5.73,12.8,30.66,12.8,25.27,0-2.69-2.69-10.44-6.4-16.84S274,92.46,274,94.48Z" transform="translate(-156.74 -52)"/><path d="M376.79,106.61c-3,7.75-5.06,14.49-4.38,15.5,1,.67,4-5,7.07-12.8s5-14.49,4.38-15.5C382.85,93.14,379.82,98.86,376.79,106.61Z" transform="translate(-156.74 -52)"/><path d="M199.58,172c0,3,23.92,12.47,26.27,10.45,1-1,1-2,0-2s-7.41-2.35-14.15-5S199.58,171,199.58,172Z" transform="translate(-156.74 -52)"/><path d="M442.15,177c-6.41,3.7-10.79,6.4-9.78,6.73,3.71,0,26.62-10.1,26.62-11.79C459,168.94,454.27,170.29,442.15,177Z" transform="translate(-156.74 -52)"/><path d="M156.74,204.45a64,64,0,0,0,3,9.1,123.62,123.62,0,0,1,5,16.84c3,13.14,8.09,11.79,10.78-2.36,2.36-13.47,6.4-12.8,9.1,1.69,3,15.16,7.41,12.46,13.14-8.43,4.38-15.49,4.38-18.52.67-18.52-3,0-4.71,3.7-4.71,9.09,0,15.84-5.73,20.22-8.09,6.4-3-16.17-8.09-18.19-10.78-3.7-2.7,15.16-8.09,15.16-8.09,0,0-8.09-1.68-11.79-5.05-11.79C159.1,202.77,156.74,203.44,156.74,204.45Z" transform="translate(-156.74 -52)"/><path d="M466.79,221c0,19.2.33,20.21,8.08,20.21,4.72,0,9.43-1.68,10.45-3.37,1-2-1-3.37-4.72-3.37-8.76,0-9.77-12.12-1-14.48,5.39-1.35,5.05-1.69-.34-2-4-.34-5.73-2.36-5.05-6.41a5.86,5.86,0,0,1,7.07-4.71c3,.67,5.73-.68,5.73-2.7,0-1.68-4.38-3.37-10.11-3.37h-10.1Z" transform="translate(-156.74 -52)"/><path d="M210.69,273c-6.06,2.7-11.11,5.73-11.11,6.74,0,1.68,23.58-7.07,26.61-10.11S221.47,268.33,210.69,273Z" transform="translate(-156.74 -52)"/><path d="M435.74,269.67c3,2.7,26.62,11.79,26.62,10.11,0-.67-5.39-4-12.13-6.74C437.77,268,433.05,266.64,435.74,269.67Z" transform="translate(-156.74 -52)"/><path d="M280.77,339.08c-4.72,14.15-2.36,16.5,3,3,2.36-5.73,3.37-11.12,2.7-12.13C285.49,329,282.79,333,280.77,339.08Z" transform="translate(-156.74 -52)"/><path d="M376.45,341.1c5.05,12.13,8.42,17.52,8.42,13.81s-10.11-26.28-11.79-26.28C372.07,328.63,373.75,334.36,376.45,341.1Z" transform="translate(-156.74 -52)"/><path d="M319.85,352.94c-5.05,5.05-1.68,14.82,6.06,18.53,4.72,2,8.43,6.06,8.43,8.76,0,3.37-2.36,4-8.43,2.69-10.1-2.69-11.45,3.37-1.68,6.4,7.41,2.36,16.84-3,16.84-9.43,0-2-4-7.07-9.09-11.12-7.08-5.73-8.42-8.42-5.73-11.45,2.7-2.7,4.72-3,6.07-.34,1.34,2,4,3.71,6.06,3.71,2.36,0,2-2-.67-5.06C333.33,350.24,323.56,348.9,319.85,352.94Z" transform="translate(-156.74 -52)"/></svg>