<svg id="Capa_1" data-name="Capa 1" xmlns="http://www.w3.org/2000/svg" viewBox="0 0 425.37 425.5"><defs><style>.cls-1{fill:#6f6f6f;}</style></defs><path class="cls-1" d="M55.4,44.4C51,46.3,45.2,52.7,43.9,56.9c-.7,2.4-.9,67.1-.7,201.2l.3,197.5,2.5,3.7a30.33,30.33,0,0,0,6.4,6.5l3.9,2.7H455.7l3.9-2.7a30.33,30.33,0,0,0,6.4-6.5l2.5-3.7V56.2l-3.1-4.3a25.87,25.87,0,0,0-7.5-6.6L453.7,43H256.1C92.8,43.1,58,43.3,55.4,44.4ZM426.5,256V426.5H85.5L85.2,257c-.1-93.2,0-170.1.3-170.8.3-1,35-1.2,170.7-1l170.3.3Z" transform="translate(-43.13 -43)"/><path class="cls-1" d="M247.5,172.4a25.53,25.53,0,0,0-10.1,9.1c-1.7,2.6-2,5.6-2.4,28l-.5,25-25.1.5-25.1.5-3.9,2.7a30.33,30.33,0,0,0-6.4,6.5c-2.1,3.1-2.5,4.8-2.5,11.3s.4,8.2,2.5,11.3a30.33,30.33,0,0,0,6.4,6.5l3.9,2.7,25.1.5,25.1.5.5,25.1c.5,24.7.5,25.1,3,28.7a30.33,30.33,0,0,0,6.4,6.5c3.5,2.4,4.9,2.7,11.6,2.7s8.1-.3,11.6-2.7a30.33,30.33,0,0,0,6.4-6.5c2.5-3.6,2.5-4,3-28.7l.5-25.1,25.1-.5,25.1-.5,3.9-2.7a30.33,30.33,0,0,0,6.4-6.5c2.1-3.1,2.5-4.8,2.5-11.3,0-6.8-.3-8.1-2.9-11.8a28.6,28.6,0,0,0-6.5-6.5c-3.4-2.1-4.9-2.2-28.6-2.7l-25-.5-.5-25.2-.5-25.1-3.1-4.4a20.71,20.71,0,0,0-17.3-8.8A30.75,30.75,0,0,0,247.5,172.4Z" transform="translate(-43.13 -43)"/></svg>