<?xml version="1.0" encoding="utf-8"?>
<!-- Generator: Adobe Illustrator 24.1.0, SVG Export Plug-In . SVG Version: 6.00 Build 0)  -->
<svg version="1.1" id="Capa_1" xmlns="http://www.w3.org/2000/svg" xmlns:xlink="http://www.w3.org/1999/xlink" x="0px" y="0px"
	 viewBox="0 0 920 960" style="enable-background:new 0 0 920 960;" xml:space="preserve">
<style type="text/css">
	.st0{fill:#6F6F6F;}
</style>
<g transform="translate(0.000000,960.000000) scale(0.100000,-0.100000)">
	<path class="st0" d="M4370,9194c-19-2-91-9-160-15c-347-29-770-133-1118-274c-146-59-414-194-559-283c-652-396-1178-968-1518-1651
		c-209-421-346-894-397-1381c-17-162-17-618,0-780c85-809,393-1543,911-2169c271-327,630-635,1004-863c145-89,413-224,559-283
		c343-139,741-237,1118-277c162-17,618-17,780,0c933,98,1781,501,2435,1156c659,660,1059,1502,1157,2436c17,162,17,618,0,780
		c-85,809-393,1543-911,2169c-464,561-1101,997-1800,1232c-262,89-585,159-866,189C4903,9191,4434,9201,4370,9194z M4790,8360
		c333-22,613-82,910-192c749-279,1365-831,1727-1547c452-894,450-1963-5-2851c-429-838-1215-1453-2118-1655c-233-52-362-67-639-72
		s-433,6-655,48c-974,184-1819,831-2254,1724c-493,1013-414,2200,209,3135c122,184,240,327,404,490c212,211,413,366,666,510
		C3564,8254,4190,8400,4790,8360z"/>
	<path class="st0" d="M4480,7625c-222-41-419-223-486-450c-16-54-18-123-21-702l-4-642l-642-4c-579-3-648-5-702-21
		c-210-62-378-230-441-441c-25-82-25-248,0-330c64-213,228-376,446-442c48-15,134-17,697-20l642-4l4-642c3-579,5-648,21-702
		c62-209,231-378,441-441c82-25,248-25,330,0c210,63,379,232,441,441c16,54,18,123,21,702l4,642l642,4c715,4,690,1,832,75
		c94,49,208,163,257,257c56,108,72,175,72,295s-16,187-72,295c-48,93-162,207-257,257c-141,73-117,71-832,75l-642,4l-4,642
		c-3,579-5,648-21,702c-50,169-175,319-326,394c-55,27-114,47-165,56C4618,7642,4577,7642,4480,7625z"/>
</g>
</svg>
